PathFileType  4	(X/Y/Z) C:\Users\antoi\Documents\MyRepositories\mobilecap\ResultsAnalysis
DataRate	CameraRate	NumFrames	NumMarkers	Units	OrigDataRate	OrigDataStartFrame	OrigNumFrames
100.0	100.0	5	51	mm	100.0	1	271
Frame#	Time	r_knee			r_shank_antsup			r_ankle			r_calc			r_5meta			r_toe			L_knee			L_shank_antsup			L_ankle			L_calc			L_5meta			L_toe			r_sh2			r_sh3			r_sh4			L_sh2			L_sh3			r_thigh1			r_thigh2			r_thigh3			r_thigh4			r_thigh5			L_thigh1			L_thigh2			L_thigh3			L_thigh4			r.ASIS			r.PSIS			L.ASIS			L.PSIS			C7			R_Shoulder			L_Shoulder			R_Sternum			L_Sternum			R_humerus			R_elbow_med			R_elbow_lat			R_forearm			R_wrist_radius			R_wrist_ulna			L_humerus			L_elbow_med			L_elbow_lat			L_forearm			L_wrist_radius			L_wrist_ulna			R_HJC			L_HJC			R_HJC_reg			L_HJC_reg			
		X1	Y1	Z1	X2	Y2	Z2	X3	Y3	Z3	X4	Y4	Z4	X5	Y5	Z5	X6	Y6	Z6	X7	Y7	Z7	X8	Y8	Z8	X9	Y9	Z9	X10	Y10	Z10	X11	Y11	Z11	X12	Y12	Z12	X13	Y13	Z13	X14	Y14	Z14	X15	Y15	Z15	X16	Y16	Z16	X17	Y17	Z17	X18	Y18	Z18	X19	Y19	Z19	X20	Y20	Z20	X21	Y21	Z21	X22	Y22	Z22	X23	Y23	Z23	X24	Y24	Z24	X25	Y25	Z25	X26	Y26	Z26	X27	Y27	Z27	X28	Y28	Z28	X29	Y29	Z29	X30	Y30	Z30	X31	Y31	Z31	X32	Y32	Z32	X33	Y33	Z33	X34	Y34	Z34	X35	Y35	Z35	X36	Y36	Z36	X37	Y37	Z37	X38	Y38	Z38	X39	Y39	Z39	X40	Y40	Z40	X41	Y41	Z41	X42	Y42	Z42	X43	Y43	Z43	X44	Y44	Z44	X45	Y45	Z45	X46	Y46	Z46	X47	Y47	Z47	X48	Y48	Z48	X49	Y49	Z49	X50	Y50	Z50	X51	Y51	Z51	

1	0.00000000	-1207.35988	805.77440	-433.74955	-1243.98918	759.79251	-405.46245	-1267.29349	403.58012	-470.87671	-1323.16064	365.41385	-527.33411	-1150.38770	345.66990	-427.42233	-1103.26710	368.63651	-476.66959	-1210.65728	804.36150	-751.64083	-1194.62967	716.88988	-758.97443	-1274.13221	404.22378	-710.71460	-1333.11182	366.15769	-657.63435	-1157.57581	351.48333	-742.27773	-1111.77698	368.82488	-688.46718	-1252.98717	646.27136	-404.08322	-1174.55358	758.62371	-441.82783	-1185.36948	643.90418	-456.31793	-1279.95926	735.95231	-772.15732	-1293.18997	614.54852	-765.11156	-1098.17341	1092.12644	-490.29555	-1093.88850	982.16190	-479.38833	-1116.89970	965.69856	-416.40283	-1159.58329	1100.92520	-400.59152	-1164.19256	986.71655	-394.61954	-1140.23648	1126.98367	-765.87688	-1151.78329	982.97042	-775.69425	-1254.69327	1130.24203	-770.90414	-1263.98265	990.09754	-753.77428	-1106.78806	1277.61134	-463.33504	-1297.95898	1309.02986	-541.64896	-1104.45050	1264.19189	-702.42020	-1297.11065	1308.68834	-640.84066	-1249.84157	1783.90429	-603.74190	-1196.23137	1745.51124	-443.50429	-1203.80466	1730.01782	-764.03170	-1150.04872	1678.58213	-588.27023	-1147.38455	1675.85704	-623.62931	-1182.80797	1508.48172	-360.67696	-1248.61267	1416.02586	-378.50339	-1203.36609	1418.66371	-333.99376	-1126.23413	1296.25157	-350.59397	-1081.22420	1207.50763	-385.60410	-1099.98601	1197.34322	-346.45395	-1210.49962	1494.00587	-838.20547	-1261.57475	1391.24419	-797.71165	-1236.04050	1395.73944	-853.15003	-1156.54196	1274.02668	-854.76291	-1105.85841	1179.67982	-823.89602	-1137.29449	1165.71214	-848.98549	-1181.44323	1194.89309	-497.91748	-1191.38340	1195.91555	-688.32684	-1175.97420	1198.83416	-496.90147	-1174.62253	1198.29000	-654.94686	
2	0.01000000	-1207.32306	805.75388	-433.70433	-1242.70541	760.83506	-405.32809	-1267.36598	403.60411	-470.96353	-1323.16870	365.41620	-527.31893	-1150.36963	345.69326	-427.37684	-1103.27005	368.64910	-476.68923	-1210.67365	804.38538	-751.61534	-1194.64120	716.91066	-758.91322	-1274.13745	404.24835	-710.70999	-1333.12077	366.18301	-657.60341	-1157.58721	351.49914	-742.26939	-1111.82384	368.83521	-688.42379	-1252.81909	646.21674	-404.09372	-1174.42824	758.65518	-441.81179	-1185.35853	643.86123	-456.25466	-1279.97363	735.96942	-772.12930	-1293.22900	614.56001	-764.90725	-1098.26505	1092.18025	-490.25064	-1093.96346	982.18264	-479.31163	-1117.05457	965.76013	-416.35055	-1159.77742	1100.86887	-400.47009	-1164.32748	986.70810	-394.57043	-1140.22760	1126.97045	-765.74754	-1151.80973	983.00355	-775.67255	-1254.75202	1130.24594	-770.93023	-1264.06234	990.11305	-753.66327	-1107.07102	1277.65548	-463.25886	-1298.23360	1309.10323	-541.56278	-1104.55060	1264.23072	-702.18414	-1297.09645	1308.56472	-641.15719	-1249.66751	1783.94134	-603.63541	-1196.14114	1745.51175	-443.47091	-1203.60099	1730.06291	-764.02285	-1149.92601	1678.61061	-588.21309	-1147.27130	1675.90177	-623.59558	-1183.01389	1508.67199	-360.14815	-1249.10253	1416.26753	-377.88107	-1203.59184	1418.78852	-333.64604	-1126.00780	1296.83141	-351.16390	-1080.95229	1208.33513	-387.02256	-1098.97845	1198.16927	-347.78512	-1210.93482	1494.13765	-838.37113	-1262.24805	1391.28837	-797.93545	-1236.77282	1395.72808	-853.33261	-1156.50654	1274.47056	-854.78173	-1105.31713	1180.47731	-823.35786	-1136.79532	1166.29361	-848.70677	-1181.68888	1194.93898	-497.83777	-1191.39664	1195.88936	-688.25943	-1176.44278	1199.14031	-496.85813	-1174.63958	1198.28560	-654.79372	
3	0.02000000	-1207.30247	805.76867	-433.68328	-1243.18096	760.50494	-405.37968	-1267.35699	403.60964	-470.92392	-1323.17566	365.44084	-527.29457	-1150.43273	345.48989	-427.62398	-1103.27667	368.65913	-476.68454	-1210.66369	804.41360	-751.60048	-1194.64324	716.92707	-758.86294	-1274.14197	404.27456	-710.70839	-1333.13546	366.20685	-657.58455	-1157.58801	351.52674	-742.25601	-1111.68626	368.91886	-688.39883	-1252.74418	645.99901	-404.18653	-1174.39683	758.64078	-441.79685	-1185.39230	643.82562	-456.19591	-1279.96875	735.99423	-772.10086	-1293.25146	614.57797	-764.81025	-1098.36248	1092.28052	-490.16962	-1094.07020	982.22811	-479.18885	-1117.21256	965.85423	-416.28058	-1160.04907	1100.89293	-400.42123	-1164.52456	986.69626	-394.50233	-1140.17945	1126.96134	-765.51949	-1151.81818	983.04845	-775.64922	-1254.82277	1130.26426	-770.95693	-1264.08359	990.10385	-753.73362	-1107.36691	1277.71848	-463.16532	-1298.45071	1309.14775	-541.60691	-1104.68328	1264.26478	-702.02496	-1297.26441	1308.62177	-641.11578	-1249.47529	1783.99908	-603.62784	-1195.94674	1745.57201	-443.42615	-1203.32411	1730.08590	-764.06353	-1149.77712	1678.65520	-588.12374	-1147.11252	1675.90934	-623.49871	-1183.26507	1508.82303	-359.76991	-1249.68339	1416.50602	-377.18384	-1203.87585	1419.01886	-332.97036	-1125.69516	1297.48435	-351.82265	-1080.52961	1209.50223	-388.39017	-1097.90249	1198.95889	-349.02929	-1211.40711	1494.32542	-838.86860	-1263.00236	1391.39999	-798.25647	-1237.60622	1395.77594	-853.80834	-1156.42410	1274.97500	-854.84523	-1104.68415	1181.49352	-822.93175	-1136.01608	1166.91735	-848.17399	-1181.95358	1194.99668	-497.75294	-1191.53667	1195.92888	-688.18106	-1176.68510	1199.18806	-496.79663	-1174.80330	1198.35333	-654.69019	
4	0.03000000	-1207.32973	805.77767	-433.70196	-1244.03671	759.85199	-405.47217	-1267.34524	403.58784	-470.87079	-1323.17882	365.46842	-527.27521	-1150.36958	345.53243	-427.58345	-1103.28327	368.66757	-476.66395	-1210.65385	804.43103	-751.54727	-1194.62715	716.92322	-758.82298	-1274.15111	404.29237	-710.70476	-1333.15506	366.22248	-657.57234	-1157.59103	351.55895	-742.24478	-1111.61671	368.97373	-688.39685	-1252.79888	645.77844	-404.30469	-1174.41140	758.59646	-441.78196	-1185.40239	643.83414	-456.18907	-1279.93742	736.01504	-772.06276	-1293.23894	614.59477	-764.79380	-1098.49629	1092.43285	-490.04094	-1094.21283	982.27632	-479.10567	-1117.34042	965.93981	-416.21378	-1160.36810	1100.91107	-400.47601	-1164.72635	986.72852	-394.40449	-1140.21110	1126.91651	-765.40355	-1151.84568	983.06056	-775.56093	-1254.89625	1130.28778	-771.01184	-1264.09660	990.08929	-753.76715	-1107.68633	1277.81278	-463.04879	-1298.67952	1309.10091	-541.70859	-1104.81336	1264.29303	-701.97157	-1297.69919	1308.90423	-640.62275	-1249.24708	1784.05225	-603.67055	-1195.71126	1745.67883	-443.43534	-1202.95108	1730.11479	-764.19390	-1149.61284	1678.69794	-588.05751	-1146.91858	1675.90697	-623.38987	-1183.61724	1508.98102	-359.46987	-1250.30306	1416.73623	-376.44600	-1204.28976	1419.28435	-332.15372	-1125.37364	1298.26113	-352.46507	-1079.93913	1210.95635	-389.80937	-1096.79765	1199.89373	-350.33406	-1211.94248	1494.53011	-839.54151	-1263.92340	1391.57860	-798.80578	-1238.56399	1395.88066	-854.44333	-1156.36615	1275.54225	-854.74485	-1103.92945	1182.70889	-822.44812	-1135.05748	1167.72393	-847.44270	-1182.23583	1195.05238	-497.64777	-1191.83786	1196.05235	-688.07460	-1176.63404	1198.82198	-496.78518	-1175.07073	1198.51081	-654.72841	
5	0.04000000	-1207.39024	805.76018	-433.72727	-1243.40332	760.32539	-405.40926	-1267.38720	403.56210	-470.90973	-1323.18285	365.47514	-527.27187	-1150.03499	346.18715	-426.77874	-1103.28401	368.68004	-476.64910	-1210.65978	804.41190	-751.42151	-1194.58109	716.90334	-758.78496	-1274.16719	404.29234	-710.69650	-1333.16816	366.22424	-657.56455	-1157.60128	351.58441	-742.23852	-1111.81062	368.93889	-688.41918	-1252.90183	645.70630	-404.37024	-1174.39914	758.58087	-441.78596	-1185.36047	643.87228	-456.23128	-1279.87946	736.02173	-772.02492	-1293.17978	614.58140	-764.79595	-1098.71035	1092.57086	-489.89930	-1094.38989	982.27312	-479.20666	-1117.44662	965.96025	-416.16949	-1160.64203	1100.79359	-400.52880	-1164.90298	986.79403	-394.29824	-1140.26738	1126.88636	-765.37553	-1151.91622	983.01177	-775.40054	-1254.97855	1130.28175	-771.05630	-1264.19856	990.10488	-753.27504	-1108.03464	1277.91711	-462.93980	-1299.00035	1309.00942	-541.75558	-1104.93303	1264.31733	-701.96489	-1298.21727	1309.16806	-640.12397	-1248.97059	1784.11195	-603.68042	-1195.53500	1745.74377	-443.51078	-1202.51460	1730.15744	-764.34389	-1149.44289	1678.71042	-588.04169	-1146.70782	1675.92827	-623.33330	-1184.10047	1509.16790	-359.16074	-1250.91625	1416.98906	-375.75947	-1204.87138	1419.51691	-331.53759	-1125.16105	1299.13183	-352.94472	-1079.19835	1212.50044	-391.33562	-1095.69233	1201.08078	-351.73636	-1212.60481	1494.66397	-839.92584	-1264.95962	1391.79098	-799.48880	-1239.62968	1396.05696	-855.05240	-1156.41560	1276.18329	-854.44337	-1103.08928	1184.05940	-821.72716	-1134.08322	1168.79861	-846.66183	-1182.53331	1195.09541	-497.54675	-1192.17245	1196.16829	-687.97132	-1176.58524	1198.39553	-496.81286	-1175.32681	1198.65035	-654.83244	
